<?xml version="1.0" encoding="utf-8"?>
<!-- Generator: Adobe Illustrator 26.0.1, SVG Export Plug-In . SVG Version: 6.00 Build 0)  -->
<svg version="1.1" id="Calque_1" xmlns="http://www.w3.org/2000/svg" xmlns:xlink="http://www.w3.org/1999/xlink" x="0px" y="0px"
	 viewBox="0 0 8463.9 2313.95" style="enable-background:new 0 0 8463.9 2313.95;" xml:space="preserve">
<style type="text/css">
	.st0{fill:#B66EFE;}
	.st1{fill:#B66FFE;}
	.st2{fill:#F4848C;}
	.st3{fill:#FAA2A9;}
	.st4{fill:#E8787D;}
	.st5{fill:#FAA5AC;}
	.st6{fill:#F7ADB1;}
	.st7{fill:#E97C82;}
	.st8{fill:#E87C81;}
</style>
<g>
	<g>
		<path class="st0" d="M2380.48,303.35c-26.32,3.05-46.58,4.48-65.77,7.81c-47.61,8.24-62.77,19.25-59.5,46.43
			c11.18,92.86,23.84,185.67,35.71,278.5c3.62,28.33,7.43,56.66,9.46,85.03c1.43,19.88-26.25,35.57-64.32,38.34
			c-34.97,2.54-61.11-7.69-65.71-29.43c-11.08-52.37-19.89-104.89-28.66-157.41c-5.91-35.41-10.2-70.91-15.34-107.34
			c-17.02,1.23-31.34,1.57-45.02,3.39c-50.27,6.66-72.37,17.3-71.09,45.84c2.32,51.94,11.11,103.82,19.62,155.61
			c6.04,36.76,16.88,73.26,23.98,109.97c4.12,21.32-16.32,34.38-53.83,36.93c-46.99,3.19-72.55-6.43-79.85-31.03
			c-10.24-34.49-21.99-68.92-28.54-103.64c-9.65-51.17-14.21-102.63-22.88-153.87c-14.89-87.97,111.94-130.58,216.81-140.03
			c8.06-0.73,16.11-1.53,24.05-2.28c-16.67-80.01,70.03-151.95,263.45-162.3c10.91-21.57,17.66-44,33.4-64.32
			c42.65-55.04,132.43-82.19,234.09-73.36c101.49,8.81,182.73,54.22,192.25,110.1c13.65,80.14,24.49,160.44,36.78,240.66
			c18.63,121.64,40.14,243.16,55.58,364.92c20.57,162.26-1.52,322.1-112.14,475.34c-48.4,67.05-117.64,127.39-205.69,180.75
			c-64.68,39.2-129.19,78.82-199.81,114.64c-172.16,87.33-307.86,186.99-373.67,312.5c-9.45,18.02-26.93,32.74-68.03,31.45
			c-44.73-1.4-72.05-20.53-61.96-44.6c43.67-104.16,131.5-195.56,264.52-273.51c93.86-55,187.2-110.35,284.47-163.5
			c155.16-84.79,248.68-186.7,295.69-303.23c41.75-103.52,51.81-207.8,37.01-313.12c-10.82-77-20.24-154.06-31.83-231.01
			c-15.45-102.58-32.54-205.09-48.62-307.64c-3.82-24.34-6.2-48.74-9.61-73.1c-2.87-20.48-71.35-53.01-106.82-50.56
			c-5.16,0.36-11.2,2.58-14.42,4.94c-28.34,20.71-51.97,41.4-51.66,69.8c1.71,156.09,0.85,312.2,0.23,468.3
			c-0.06,16.44-2.28,33.06-7.14,49.27c-5.57,18.59-29.76,28.05-64.07,27.94c-34.81-0.11-57.38-9.2-63.9-28.07
			c-4.01-11.59-5.91-23.58-5.97-35.4c-0.7-128.32-0.86-256.64-1.16-384.96C2380.52,320.96,2380.51,313.83,2380.48,303.35z"/>
		<path class="st0" d="M-397.3,473.83c-6.62,43.08-12.91,85.08-19.58,127.07c-7.11,44.7-14.01,89.42-22.14,134.07
			c-3.68,20.24-29.81,31.5-66.72,30.49c-38.4-1.05-64.56-14.5-62.4-35.23c7.91-75.81,17.68-151.56,26.41-227.34
			c5.62-48.77,10.8-97.56,15.86-146.36c1.81-17.41-12.6-29.32-42.94-34.44c-26.93-4.55-54.33-8.29-86.76-13.17
			c0.03,11.66,0.06,19.45,0.06,27.24c0.13,134.94,0.37,269.87,0.27,404.81c-0.02,25.7-14.16,36.67-51.12,41.55
			c-46.72,6.18-82.35-10.17-83.47-39.53c-1.72-44.96-2.39-89.95-2.69-134.92c-0.62-94.59-0.34-189.18-1.21-283.76
			c-0.3-33.03-3.12-66.05-4.37-99.07c-1.1-28.89-36.59-55.27-76.78-56.59c-45.03-1.49-92.29,22.72-96.99,51.89
			c-8.58,53.27-14.82,106.65-22.26,159.98c-13.68,98.09-27.71,196.16-41.23,294.25c-9.89,71.77-27.01,143.57-27.02,215.34
			c-0.02,125.85,19.97,250.78,112.76,368.32c46.73,59.19,107.51,112.92,188.96,160.03c136.3,78.84,274.09,157.15,402.29,239.89
			c93.11,60.09,156.87,130.91,186.74,209.65c11.15,29.4,3.38,41.36-36.7,50.2c-35.97,7.93-67.32,1.22-82.35-18.5
			c-32.48-42.59-62.47-85.79-96.67-127.95c-43.29-53.36-115.56-95.37-187.43-136.96c-97.51-56.43-198.13-111.22-296.22-167.35
			c-142.04-81.28-221.2-180.87-271.84-288.5c-47.86-101.72-66.19-205.48-56.92-310.15c8.28-93.59,25.86-186.94,38.94-280.41
			c10.32-73.74,19.59-147.52,30.14-221.24c8.1-56.58,13.66-113.38,27.33-169.58c13.72-56.36,110.26-101.41,211.63-104
			c109.3-2.8,198.59,34.15,226.98,94.42c6.9,14.64,11.3,29.65,17.69,46.73c77.49-1.4,145.78,12.18,199.67,43.41
			c54.27,31.45,76.62,69.37,65.59,108.07c55.2,13.46,107.87,22.79,153.55,38.33c58.44,19.89,85.27,51.34,86.12,90.45
			c1.83,84.9-16.85,168.66-41.15,252.23c-1.89,6.52-2.85,13.12-4.05,19.69c-5.35,29.25-57.3,44.94-105.54,31.98
			c-23.56-6.33-32.97-16.86-30.32-30.74c7.62-40.04,16.62-80.01,23.35-120.09c7.72-45.96,16-91.97,19.54-138.05
			C-276.99,487.49-310.62,471.77-397.3,473.83z"/>
		<path class="st0" d="M3332.49,1609.74c0.15,64.52-0.96,127.95,1.22,191.33c0.65,18.9-8.42,25.67-43.85,24.69
			c-52.67-1.46-105.64-0.68-158.43,0.2c-25.42,0.42-36.53-3.27-36.51-18.69c0.28-193.07-0.25-386.13-1.28-579.2
			c-0.07-12.72,6.42-17.32,30.44-17.25c128.46,0.36,257.1-2.35,385.34,0.41c112.65,2.42,219.2,18.59,291.88,71.52
			c56.23,40.95,67.46,88.63,61.01,138.86c-5.31,41.37-25.04,79.24-73.74,111.53c-64.3,42.63-150.85,62.6-247.35,69.24
			C3473.81,1607.01,3405.44,1607.33,3332.49,1609.74z M3333.94,1499.99c44.07-0.1,85.06,2.06,124.93-0.73
			c106.61-7.46,154.61-30.1,166-81.38c9.73-43.83-15.38-83.2-91.87-93.23c-63.54-8.33-131.23-7.16-199.51-10.31
			C3333.65,1379.3,3333.79,1438.46,3333.94,1499.99z"/>
		<path class="st1" d="M-580.69,802.91c89.52-0.06,152.71,12.67,202.12,43.41c112.01,69.68,221,140.94,337.23,208.42
			c75.53,43.85,161.58,82.22,243.05,122.96c57.62,28.82,118.05,56.09,172.6,86.56c88.89,49.66,119.17,113.72,140.67,180.51
			c45.56,141.48,95.54,282.52,143.77,423.73c8.15,23.85-13.24,45.55-50.07,50.47c-39.32,5.25-73.41-6.2-83.84-32.4
			c-24.08-60.53-45.65-121.37-66.66-182.26c-34.42-99.72-66.73-199.67-101.67-299.34c-16.35-46.62-65.89-83.02-128.63-113.95
			c-117.78-58.05-241.19-112.91-353.61-173.92c-91.04-49.41-169.04-106.07-253.56-159.16c-33.97-21.33-68.89-42.27-105.21-62.38
			c-36.08-19.97-80.66-22.14-126.79-12.66c-55.93,11.49-74.51,36.59-45.03,65.19c95.85,92.96,193.89,185.24,290.61,277.93
			c32.83,31.47,65.01,63.16,96.03,95.18c25.05,25.86,18.87,40.32-19,52.32c-36.03,11.42-73.47,5.36-97.6-16.7
			c-76.08-69.55-152.09-139.12-227.25-208.97c-55.6-51.67-113.98-102.63-163.43-156.07c-46.2-49.92-45.34-101.24,25.26-146.33
			C-703.01,814.36-636.81,803.87-580.69,802.91z"/>
		<path class="st0" d="M2537.94,915.37c-1.94,40.12-31.49,74.89-67.01,108.08c-116.5,108.87-233.99,217.42-351.61,325.92
			c-26.86,24.78-74.42,31.3-108.23,15.3c-25.49-12.06-33.97-26.28-15.31-43.89c73.24-69.13,146.26-138.33,218.48-207.78
			c56.11-53.96,111.84-108.05,165.92-162.63c32.21-32.51,27.12-51.17-12.47-66.54c-47.91-18.6-114.47-17.56-151.71,5.02
			c-77.54,47.01-155.9,93.8-228.16,143.22c-122.93,84.08-265.16,156.64-417.62,223.82c-36.43,16.05-69.31,34.66-102.43,52.86
			c-78.73,43.26-97.58,100.19-116.65,156.94c-45.76,136.2-91.09,272.45-137.38,408.59c-12.43,36.54-45.71,50.02-95.85,40.92
			c-34.29-6.22-47.42-17.45-40.91-37.44c44.14-135.7,88.62-271.38,133.2-407.04c9.17-27.91,18.45-55.83,29.01-83.59
			c28.9-75.99,117.36-130.3,219.09-179.3c84.07-40.49,175.22-77.02,253.17-120.75c98.3-55.15,185.69-116.15,279.11-173.98
			c49.48-30.63,99.8-61.01,153.25-89.5c65.69-35.01,202.72-36.93,290.57-7.52C2502.86,839.03,2536.91,871.95,2537.94,915.37z"/>
		<path class="st2" d="M1002.7,589.68c-4.18,0.12-8.37,0.24-12.56,0.36c-10,2.32-19.99,4.64-29.99,6.96
			c-5.01,5.71-14,11.36-14.34,17.15c-1.66,28.39,2.54,57.01-2.62,85.15c-2.81,15.33,6.34,17.06,27.76,16.95
			c54-0.27,108.01-0.31,162.01-0.44c87.27-0.21,86.18-0.2,87.08,47.34c0.29,15.4-7.06,20.79-36.2,20.39
			c-69.55-0.95-139.19,0.08-208.8,0.07c-20.16,0-34.05,1.32-33.42,16.04c2.49,57.83,2.76,115.69,4.54,173.53
			c0.41,13.15-10.64,17.45-32.95,17.15c-32.38-0.44-64.8-0.02-97.2,0.04c-0.17-56.55,0.53-113.11-1.44-169.63
			c-0.29-8.31-13.24-16.47-20.33-24.7c-2.42-13.59-21-11.87-37.5-11.83c-73.81,0.16-147.61,0.4-221.42,0.62
			c2.07-17.02,6.02-34.06,5.62-51.07c-0.31-13.26,8.54-17,31.55-16.85c69.59,0.47,139.22-0.42,208.82-0.12
			c24.22,0.1,34.95-4.49,34.4-18.48c-1.19-30.39,0.42-60.82-1.51-91.19c-0.3-4.7-13.27-9.14-20.38-13.7
			c-10.08-1.03-20.17-2.07-30.25-3.1c-6.87-0.53-13.75-1.07-20.62-1.6c-11.91-3.37-23.82-6.75-35.73-10.13
			c-59.42-17.09-120.99-32.29-177.78-51.71c-96.37-32.96-158.04-83.56-202.25-139.18c-39.33-49.47-53.03-102.72-46.88-157.61
			c6.86-61.27,45.65-116.2,104.91-166.64C434.8,21.26,501.45-13.49,580.7-38.21c49.71-15.51,106.7-24.05,160.92-34.98
			c30.78-6.2,62.56-10.92,93.88-16.3c26.39,0.01,52.78,0.03,79.18,0.04c26.39,1.37,52.79,2.73,79.18,4.1
			c4.65,0.32,9.3,0.65,13.94,0.96c7.25,1.22,14.49,2.44,21.73,3.66c4.72,0.32,9.44,0.63,14.16,0.94c8.19,1.66,16.39,3.34,24.58,5.01
			c4,0.43,7.99,0.85,11.99,1.28c8.29,2.05,16.58,4.09,24.87,6.14c8.21,1.11,16.42,2.22,24.64,3.31
			c20.57,7.01,41.12,14.06,61.71,21.06c30.82,10.48,61.66,20.94,92.49,31.41c1.83,0.31,3.53,0.77,5.11,1.36
			c5.08,2.36,10.16,4.73,15.23,7.1c0,0-0.03-0.02-0.03-0.02c7.34,3.92,14.68,7.85,22.02,11.77c2.35,1.28,4.69,2.56,7.04,3.84
			c7.13,4.04,14.25,8.08,21.38,12.12c0,0-0.02-0.01-0.02-0.01c20.77,14.71,41.54,29.41,62.31,44.12c3.46,3.64,6.93,7.28,10.39,10.92
			c6.15,5.6,12.31,11.19,18.46,16.78c1.26,2.21,2.52,4.42,3.77,6.63c13.17,24.29,26.63,48.52,39.4,72.87
			c6.76,12.89,12.3,25.97,18.4,38.96c0.07,22.44,0.15,44.89,0.22,67.33c-19.44,39.8-38.87,79.6-58.3,119.4
			c-0.37,1.2-1.02,2.35-1.94,3.45c-30.32,24.2-60.64,48.41-90.96,72.61c-3.3,2.32-6.6,4.64-9.9,6.96
			c-6.8,3.82-13.61,7.64-20.42,11.46c-6.67,3.09-13.33,6.18-20,9.27c-17.08,7.87-34.15,15.73-51.23,23.6
			c-1.63,0.5-3.37,0.82-5.22,0.98c-8.02,3.49-16.03,6.99-24.03,10.49c-1.71,0.54-3.53,0.9-5.47,1.1
			c-12.15,2.44-24.47,4.63-36.4,7.36c-44.79,10.23-89.4,20.7-134.19,30.92C1034.13,583.33,1018.34,586.4,1002.7,589.68z
			 M876.34,541.8c311.14,6.22,540.01-140.63,540.64-283.6c0.76-171.4-233.33-288.6-519.16-296.03
			C595.29-45.7,349.56,98.98,341.86,245.04C333.18,409.65,609.54,554.29,876.34,541.8z"/>
		<path class="st0" d="M4526.16,1528.56c9.1-52.37-28.38-86.16-100.14-85.98c-56.72,0.15-113.92,5.61-169.95,11.5
			c-33.51,3.52-65.19,12.4-101.42,19.62c-22.9-25.25-46.69-50.25-67.52-75.98c-2.71-3.35,7.79-13.9,15.56-15.28
			c68.12-12.1,136.12-25.2,205.9-33.42c76.85-9.05,155.43-6.08,231.76,4.02c139.62,18.47,215.61,68.7,218.22,148.26
			c3.31,101.08,1,202.23,1.96,303.34c0.12,12.94-8.22,18.48-31.4,17.33c-3.57-0.18-7.26-0.25-10.79,0.04
			c-80.72,6.52-147.37,0.36-161.66-53.69c-0.43-1.64-4.34-2.99-9.84-6.57c-17.61,9.49-35.45,17.86-50.61,27.5
			c-84.77,53.87-322.01,56.27-407.45,14.64c-45.31-22.08-75.36-48.35-82.73-80.68c-5.44-23.88-6.16-48.8-0.21-72.61
			c11.25-45.05,62.09-74.39,136.84-92.19c76.31-18.17,156.99-22.96,238.7-25.2C4428.98,1531.9,4476.55,1530.17,4526.16,1528.56z
			 M4528.72,1607.65c-55.39-5.14-167.81,1.14-212.14,11.34c-7.73,1.78-15.43,3.72-22.61,6.09c-45.07,14.84-64.5,43.09-52.51,75.93
			c7.73,21.18,36.85,33.98,85.86,37.73c104.75,8.03,190.98-28.78,201.13-86.63C4530.96,1637.75,4528.76,1623.16,4528.72,1607.65z"/>
		<path class="st0" d="M7989.64,1464.13c-24.64-27.8-49.05-55.33-74.8-84.38c60.47-19.39,123.1-30.25,187.82-36.72
			c81.67-8.17,163.38-9.46,246.41-2.01c149.13,13.37,240.56,64.65,244.11,148c4.37,102.38,1.5,204.86,2.36,307.3
			c0.1,11.72-7.06,16.95-29.06,16.69c-35.98-0.43-72.22,1.3-107.89-0.54c-12.95-0.67-29.13-7.53-35.84-14.06
			c-14.4-14.02-23.59-29.66-37.57-48.14c-12.1,7.27-19.85,11.8-27.34,16.46c-105.84,65.77-317.65,78.11-438.22,24.71
			c-19.07-8.45-36.13-19.62-47.96-31.42c-44.08-43.97-47.07-91.38-21.25-138.19c27.87-50.52,104.44-73.78,190.48-83.74
			c80.4-9.31,163.45-11.71,245.47-16.46c23.6-1.37,47.65-0.31,70.62-0.37c21.34-58.1-33.43-92.22-115.11-88.53
			c-42.77,1.93-86.04,3.64-127.74,8.77C8073.55,1446.49,8034.67,1455.74,7989.64,1464.13z M8369.13,1593.23
			c-69.99,4.17-129.45,6.38-187.92,11.83c-23.67,2.2-47.94,9.54-67.2,17.87c-57.99,25.07-52.91,84.27,6.66,100.55
			c82.63,22.59,207.58-5.17,232.24-53.85C8364.24,1647.24,8363.27,1622.98,8369.13,1593.23z"/>
		<path class="st0" d="M5476.18,1820.19c-0.37-156.23-0.73-310.01-1.1-467.16c53.22-0.13,106.68-0.78,160.02,0.25
			c7.17,0.14,16.32,8.25,20.11,13.63c9.74,13.81,16.98,28.15,26.26,44.08c9.97-4,16.62-5.69,20.81-8.5
			c87.32-58.53,203.63-69.04,328.99-56.97c147.51,14.21,223.44,68.64,225.26,158.32c2,98.5,0.43,197.02,1.59,295.53
			c0.17,14.65-7.88,19.79-34.95,19.35c-53.97-0.88-108.1-0.89-162.04,0.41c-31.04,0.75-38.44-5.97-38.34-21.88
			c0.57-90.57,0.19-181.15-1.76-271.71c-0.3-14.12-7.69-28.69-16.43-42.14c-18.73-28.84-63.16-38.28-113.68-39.95
			c-80.19-2.66-144.9,21.11-165.35,63.87c-12.68,26.51-19.43,54.51-20.47,81.92c-2.65,70.05-1.35,140.16,0.13,210.23
			c0.33,15.73-8.61,20.92-37.07,20.56C5604.9,1819.23,5541.58,1820.03,5476.18,1820.19z"/>
		<path class="st0" d="M10223.49,1691.44c0.07,29.02,1.83,56.77-1.13,84.36c-0.65,6.04-16.4,14.8-28.21,16.77
			c-54.84,9.17-110.02,20.11-166.41,23.52c-106.46,6.43-213.7,6.67-314.83-17.91c-106.56-25.9-176.8-70.64-205.9-132.06
			c-32.41-68.42-29.56-137.33,16.16-204.55c51.04-75.04,177.42-124.68,322.54-127.87c85.99-1.89,170.99-0.56,248.28,23.31
			c102.87,31.77,157,82.02,171.01,145.38c6.2,28.06,4.3,56.65,8.01,84.92c2.12,16.21-10.01,20.11-37.66,20.06
			c-156.11-0.24-312.23,0.44-468.35,0.81c-12.89,0.03-25.77,0.06-37.95,0.09c-13.73,60.29,69.88,112.83,177.59,115.14
			c96.2,2.06,188.74-6.36,277.31-27.58c7.68-1.84,15.62-3.42,23.66-4.72C10210.8,1690.61,10214.57,1691.21,10223.49,1691.44z
			 M10047.96,1523.53c8.01-45.05-26.48-79.12-91.86-94.11c-109.43-25.09-229.21,18.98-227.12,84.06
			c0.12,3.65,12.03,10.27,18.56,10.29C9846.92,1524.21,9946.32,1523.77,10047.96,1523.53z"/>
		<path class="st0" d="M7672.75,1685.3c0.08,35.02,0.71,67.94-0.5,100.84c-0.14,3.87-8.99,9.76-16.09,11.15
			c-161.39,31.68-325.53,40.66-489.97,10.51c-135.01-24.76-219-79.9-260.48-152.91c-56.31-99.11-58.16-198.97,14.88-296.58
			c66.69-89.13,189.5-140.07,361.14-157.56c138.43-14.1,268.86,0.19,397.02,27.71c26.57,5.71,34.89,12.68,22.47,28.24
			c-22.13,27.75-40.84,56.33-62,85.98c-36.42-8.02-70.54-15.58-104.72-23.05c-60.14-13.16-122.77-18.66-186.93-14.25
			c-94.28,6.48-157.73,36.77-195.45,83.47c-40.56,50.22-47.86,103.69-38.28,157.35c5.21,29.19,16.06,58.88,34.16,86.38
			c37.39,56.82,118.92,81.85,225.61,84c89.95,1.82,175.88-10.25,260.88-24.91C7645.75,1689.76,7657.04,1687.93,7672.75,1685.3z"/>
		<path class="st0" d="M9367.24,1454.42c-36.15,0.09-68.49-0.47-100.72,0.35c-123.34,3.13-202.24,48.54-202.62,116.83
			c-0.4,72.09-1,144.2,1.19,216.27c0.6,19.67-11.24,25.11-45.23,24.3c-52.73-1.25-105.67-0.35-158.5,0.12
			c-19.41,0.18-28.05-3.31-28.04-14.78c0.16-148.16-0.29-296.31-0.43-444.47c0-1.84,1.86-3.68,4.17-7.97
			c51.51-0.12,104-1.01,156.26,0.43c8.12,0.22,18.64,10.48,22.15,17.05c9.97,18.66,16.89,37.82,27.69,63.03
			c16.19-11.62,25.17-18.06,34.13-24.51c70.73-50.91,162.71-74.76,279.24-65.53c10.16,0.81,26.77,8.67,26.38,12.88
			C9379.65,1383.21,9373.09,1417.9,9367.24,1454.42z"/>
		<path class="st0" d="M4999.74,1354.02c71.49-0.17,138.59-0.07,205.67-0.62c24.19-0.2,22.85,8.29,22.85,17.18
			c0.01,41.62,0.17,83.24,0.27,124.86c0.24,101.07-0.21,202.15,1.38,303.22c0.27,17.45-9.03,23.13-40.76,22.58
			c-61.98-1.06-124.08-0.06-188.3,0.09C5000.47,1664.78,5000.11,1510.64,4999.74,1354.02z"/>
		<path class="st3" d="M835.5-89.49c-31.33,5.38-63.1,10.1-93.88,16.3C687.4-62.26,630.41-53.72,580.7-38.21
			C501.45-13.49,434.8,21.26,385.24,63.45c-59.25,50.44-98.05,105.37-104.91,166.64c-6.14,54.89,7.56,108.14,46.88,157.61
			c44.21,55.61,105.88,106.22,202.25,139.18c56.79,19.42,118.36,34.61,177.78,51.7c-0.23,1.46-0.47,2.93-0.7,4.4
			c-32.76-5.08-67.69-7.69-97.93-15.66C431.39,520.62,303,446.9,260.07,340.79C188.17,163.05,320.48,12.23,625.8-64.88
			c54.37-13.73,116.32-18.47,175.15-26.53C811.53-92.86,823.94-90.23,835.5-89.49z"/>
		<path class="st0" d="M4988.78,1230.49c-6.23-43.69,47.4-61.12,124.63-62.03c78.69-0.92,126.23,23.88,126.43,63.1
			c0.2,38.4-48.96,62.51-128.17,62.85C5025.41,1294.78,4988.74,1275.71,4988.78,1230.49z"/>
		<path class="st4" d="M816.03,990.36c32.4-0.05,64.82-0.47,97.2-0.04c22.31,0.3,33.35-4,32.95-17.15
			c-1.78-57.84-2.05-115.7-4.54-173.53c-0.63-14.71,13.25-16.04,33.42-16.04c69.61,0,139.25-1.02,208.8-0.07
			c29.14,0.4,36.49-4.99,36.2-20.39c-0.9-47.54,0.19-47.55-87.08-47.34c-54,0.13-108.01,0.17-162.01,0.44
			c-21.42,0.11-30.57-1.62-27.76-16.95c5.16-28.14,0.96-56.76,2.62-85.15c0.34-5.79,9.34-11.43,14.34-17.14
			c0.06,30.21-0.33,60.42,0.53,90.62c0.19,6.6-5.33,17.88,20.52,13.6c86.12-0.13,172.24-0.26,258.37-0.4
			c0.39,32.59,0.77,65.19,1.15,97.79c-86.27,0.35-172.54,0.7-258.81,1.04c-28.9-0.87-20.93,11.08-21.06,19.26
			c-1.05,62.99-1.48,125.97-2.1,188.96c-6.14,0.06-12.28,0.12-18.43,0.19c-5.78-0.04-11.56-0.1-17.34-0.15
			c-8.62,0.05-17.23,0.1-25.85,0.16c-5.78,0.02-11.56,0.02-17.34,0.03c-8.61-0.02-17.22-0.03-25.84-0.04
			c-5.79,0.08-11.58,0.14-17.36,0.21c-3.82-0.03-7.64-0.06-11.47-0.09C822.08,1002.26,819.05,996.31,816.03,990.36z"/>
		<path class="st5" d="M793.85,593.42c7.11,4.56,20.08,9,20.38,13.7c1.93,30.36,0.32,60.8,1.51,91.19
			c0.55,13.99-10.19,18.58-34.4,18.48c-69.6-0.3-139.23,0.58-208.82,0.12c-23.01-0.15-31.86,3.59-31.55,16.85
			c0.4,17-3.55,34.04-5.63,51.06c-3.44,4.28-6.87,8.57-10.3,12.85c-6.12-5-17.01-9.85-17.52-15.03
			c-2.06-21.11,0.38-42.35-1.45-63.47c-1.21-13.94,7.62-18.34,32.78-18.16c80.46,0.59,160.95,0,241.43-0.13
			c4.58-5.81,12.89-11.58,13.14-17.44C794.7,653.45,793.91,623.43,793.85,593.42z"/>
		<path class="st6" d="M816.03,990.36c3.03,5.95,6.05,11.9,9.08,17.84c-37.41,6.73-43.08-5.18-43.21-21.61
			c-0.49-62.1-1.63-124.19-2.52-186.29c4.96-1.42,9.92-2.85,14.87-4.27c7.09,8.23,20.04,16.39,20.33,24.7
			C816.56,877.26,815.86,933.81,816.03,990.36z"/>
		<path class="st7" d="M794.25,796.03c-4.96,1.42-9.91,2.84-14.87,4.27c-70.69,0.16-141.38,0.49-212.07,0.33
			c-14.09-0.03-28.16-1.93-42.25-2.97c3.41-4.28,6.84-8.56,10.27-12.85c73.81-0.21,147.62-0.46,221.42-0.62
			C773.26,784.16,791.84,782.44,794.25,796.03z"/>
		<path class="st6" d="M958.75,1007.89c0.62-62.99,1.05-125.98,2.1-188.96c0.14-8.19-7.84-20.13,21.06-19.26
			c-2.53,9.01-7.17,18.02-7.26,27.04c-0.56,54.66,0.39,109.31-0.66,163.96C973.88,996.43,964.06,1002.15,958.75,1007.89z"/>
		<path class="st6" d="M1449.35,401.61c19.43-39.8,38.86-79.6,58.3-119.4c16.64,32.97-14.53,61.54-29.54,91.43
			C1473.08,383.65,1459.19,392.33,1449.35,401.61z"/>
		<path class="st6" d="M1002.7,589.68c15.64-3.28,31.43-6.35,46.88-9.88c44.79-10.22,89.4-20.69,134.19-30.92
			c11.93-2.72,24.25-4.92,36.4-7.36c-52.28,14.29-103.96,29.33-157.2,42.43C1044.92,588.4,1022.91,587.91,1002.7,589.68z"/>
		<path class="st6" d="M981.21,701.23c-25.86,4.27-20.34-7-20.52-13.6c-0.86-30.2-0.47-60.41-0.53-90.62
			c10-2.32,19.99-4.65,29.99-6.96c-5.44,8.26-15.57,16.54-15.49,24.76C974.94,643.62,978.74,672.42,981.21,701.23z"/>
		<path class="st6" d="M1507.43,214.88c-6.09-12.99-11.64-26.07-18.4-38.96c-12.77-24.35-26.23-48.58-39.4-72.87
			c9.22,7.94,23.04,15.26,26.8,23.93C1489.01,155.99,1522.42,182.9,1507.43,214.88z"/>
		<path class="st6" d="M793.85,593.42c0.06,30.01,0.85,60.03-0.43,90.02c-0.25,5.86-8.55,11.63-13.14,17.44
			c0.3-29.46,1.77-58.95,0.08-88.37c-0.43-7.5-10.89-14.8-16.75-22.19C773.68,591.35,783.76,592.39,793.85,593.42z"/>
		<path class="st6" d="M1283.97-11.57c-30.83-10.47-61.68-20.93-92.49-31.41c-20.59-7.01-41.14-14.05-61.71-21.06
			C1190.05-54.44,1243.17-38.48,1283.97-11.57z"/>
		<path class="st6" d="M1240.73,798.62c-0.38-32.6-0.77-65.2-1.15-97.79c1.17,0.12,2.94,0.01,3.44,0.4
			C1259.94,714.18,1258.18,785.74,1240.73,798.62z"/>
		<path class="st6" d="M1356.44,477.68c30.32-24.2,60.65-48.41,90.96-72.61C1428.18,433.48,1402.91,459.6,1356.44,477.68z"/>
		<path class="st6" d="M1417.02,68.72c-20.77-14.71-41.54-29.41-62.31-44.12C1375.48,39.31,1396.25,54.02,1417.02,68.72z"/>
		<path class="st3" d="M993.86-85.35c-26.39-1.36-52.79-2.73-79.18-4.1C941.07-88.08,967.47-86.72,993.86-85.35z"/>
		<path class="st6" d="M1254.9,528.97c17.07-7.87,34.15-15.74,51.23-23.6C1289.05,513.23,1271.97,521.1,1254.9,528.97z"/>
		<path class="st6" d="M706.55,582.98c0.23-1.47,0.47-2.94,0.7-4.4c11.91,3.39,23.82,6.77,35.73,10.14
			C730.83,586.81,718.69,584.89,706.55,582.98z"/>
		<path class="st6" d="M1445.86,96.42c-6.15-5.59-12.31-11.19-18.46-16.78C1433.56,85.23,1439.71,90.83,1445.86,96.42z"/>
		<path class="st6" d="M1326.13,496.1c6.81-3.82,13.62-7.64,20.42-11.46C1339.73,488.46,1332.93,492.28,1326.13,496.1z"/>
		<path class="st6" d="M1326.3,8.64c-7.34-3.92-14.68-7.85-22.02-11.77C1311.62,0.8,1318.96,4.72,1326.3,8.64z"/>
		<path class="st6" d="M1354.72,24.61c-7.13-4.04-14.25-8.08-21.38-12.12C1340.47,16.53,1347.6,20.57,1354.72,24.61z"/>
		<path class="st6" d="M1225.64,540.43c8.01-3.5,16.02-6.99,24.03-10.49C1241.67,533.45,1233.66,536.94,1225.64,540.43z"/>
		<path class="st3" d="M1105.13-67.36c-8.29-2.05-16.58-4.1-24.87-6.14C1088.55-71.45,1096.84-69.41,1105.13-67.36z"/>
		<path class="st3" d="M1068.27-74.78c-8.19-1.67-16.38-3.35-24.58-5.01C1051.89-78.11,1060.08-76.44,1068.27-74.78z"/>
		<path class="st3" d="M1029.54-80.73c-7.24-1.22-14.49-2.44-21.73-3.66C1015.05-83.17,1022.29-81.95,1029.54-80.73z"/>
		<path class="st6" d="M836.58,1008.29c5.79-0.07,11.57-0.13,17.36-0.21C848.16,1008.14,842.37,1008.21,836.58,1008.29z"/>
		<path class="st6" d="M879.78,1008.12c5.78-0.01,11.56-0.02,17.34-0.03C891.35,1008.09,885.57,1008.11,879.78,1008.12z"/>
		<path class="st6" d="M922.98,1007.92c5.78,0.05,11.56,0.1,17.34,0.15C934.54,1008.02,928.76,1007.97,922.98,1007.92z"/>
		<path class="st6" d="M1304.32-3.11c-5.08-2.37-10.15-4.74-15.23-7.1C1294.16-7.84,1299.24-5.48,1304.32-3.11z"/>
		<path class="st8" d="M876.34,541.8c-266.8,12.49-543.16-132.15-534.48-296.76C349.56,98.98,595.29-45.7,897.82-37.83
			c285.83,7.43,519.92,124.63,519.16,296.03C1416.35,401.17,1187.48,548.02,876.34,541.8z M1364.94,252.43
			c0.79-146.28-212.95-263.8-479.81-263.79C610.16-11.36,387.88,105.73,389,252.18c1.1,144.29,205.24,264.87,487.43,265.31
			C1155.89,517.93,1368.9,394.94,1364.94,252.43z"/>
	</g>
</g>
</svg>
