<?xml version="1.0" encoding="utf-8"?>
<!-- Generator: Adobe Illustrator 26.0.1, SVG Export Plug-In . SVG Version: 6.00 Build 0)  -->
<svg version="1.1" id="Calque_1" xmlns="http://www.w3.org/2000/svg" xmlns:xlink="http://www.w3.org/1999/xlink" x="0px" y="0px"
	 viewBox="0 0 4245.33 2013.28" style="enable-background:new 0 0 4245.33 2013.28;" xml:space="preserve">
<style type="text/css">
	.st0{fill:#B66EFE;}
	.st1{fill:#B66FFE;}
	.st2{fill:#F4848C;}
	.st3{fill:#FAA2A9;}
	.st4{fill:#E8787D;}
	.st5{fill:#FAA5AC;}
	.st6{fill:#F7ADB1;}
	.st7{fill:#E97C82;}
	.st8{fill:#E87C81;}
</style>
<g>
	<g>
		<path class="st0" d="M2075.93,1135.24c-31.34,8.58-55.47,12.58-78.32,21.96c-56.68,23.27-74.7,54.54-70.7,131.9
			c13.69,264.35,29.13,528.54,43.63,792.81c4.43,80.64,9.07,161.3,11.61,242.06c1.78,56.58-31.13,101.14-76.47,108.87
			c-41.65,7.1-72.83-22.11-78.39-84.02c-13.41-149.09-24.1-298.63-34.75-448.12c-7.18-100.81-12.42-201.86-18.7-305.57
			c-20.27,3.44-37.32,4.36-53.61,9.47c-59.85,18.76-86.14,48.97-84.51,130.21c2.97,147.84,13.65,295.55,23.99,442.97
			c7.34,104.64,20.39,208.58,28.99,313.1c4.99,60.69-19.31,97.8-63.98,104.91c-55.96,8.91-86.45-18.57-95.24-88.62
			c-12.33-98.19-26.47-196.23-34.41-295.08c-11.7-145.68-17.33-292.17-27.86-438.03c-18.08-250.43,132.83-371.22,257.72-397.72
			c9.6-2.04,19.18-4.29,28.63-6.41c-20.17-227.79,82.83-432.2,313.18-460.91c12.91-61.35,20.86-125.16,39.54-182.95
			c50.59-156.5,157.43-233.41,278.56-207.88c120.92,25.48,217.88,155.03,229.43,314.11c16.57,228.16,29.8,456.74,44.75,685.1
			c22.67,346.28,48.77,692.23,67.63,1038.86c25.13,461.89-0.55,916.75-131.72,1352.47c-57.39,190.65-139.63,362.13-244.31,513.66
			c-76.89,111.31-153.58,223.82-237.56,325.5c-204.74,247.88-365.98,531-443.89,887.98c-11.18,51.25-31.96,93.08-80.91,89.24
			c-53.29-4.17-85.91-58.72-73.98-127.18c51.61-296.28,155.87-556.09,314.02-777.43c111.59-156.18,222.56-313.35,338.21-464.24
			c184.49-240.71,295.5-530.4,351.03-861.91c49.33-294.47,60.9-591.24,42.86-891.05c-13.19-219.19-24.71-438.55-38.82-657.63
			c-18.81-292.03-39.57-583.85-59.12-875.8c-4.64-69.28-7.58-138.76-11.73-208.1c-3.49-58.31-85.2-151.16-127.44-144.33
			c-6.15,0.99-13.33,7.3-17.16,14c-33.68,58.85-61.75,117.62-61.27,198.45c2.65,444.28,2.23,888.59,2.11,1332.89
			c-0.01,46.78-2.59,94.08-8.31,140.2c-6.57,52.89-35.34,79.72-76.21,79.28c-41.46-0.45-68.39-26.42-76.22-80.14
			c-4.82-33.01-7.13-67.13-7.25-100.77c-1.34-365.23-2.03-730.46-2.89-1095.68C2076.05,1185.36,2076,1165.05,2075.93,1135.24z"/>
		<path class="st0" d="M-1232.27,1609.57c-7.72,122.59-15.05,242.12-22.83,361.59c-8.29,127.21-16.34,254.46-25.85,381.51
			c-4.31,57.59-35.39,89.53-79.36,86.52c-45.74-3.14-76.96-41.52-74.47-100.52c9.13-215.73,20.47-431.3,30.57-646.96
			c6.5-138.8,12.48-277.65,18.33-416.5c2.09-49.55-15.12-83.49-51.28-98.2c-32.1-13.06-64.74-23.8-103.4-37.83
			c0.08,33.2,0.14,55.36,0.18,77.52c0.68,384.06,1.49,768.12,1.91,1152.18c0.08,73.14-16.72,104.3-60.73,118.06
			c-55.63,17.4-98.13-29.27-99.58-112.83c-2.23-127.98-3.2-256.01-3.73-384.03c-1.11-269.22-1.15-538.44-2.56-807.65
			c-0.49-94.01-3.98-187.99-5.6-282c-1.42-82.22-43.8-157.44-91.68-161.38c-53.64-4.41-109.85,64.3-115.33,147.32
			c-10.01,151.59-17.24,303.5-25.89,455.26c-15.91,279.12-32.24,558.19-47.96,837.33c-11.5,204.23-31.61,408.53-31.34,612.78
			c0.47,358.19,24.77,713.84,135.77,1048.76c55.89,168.66,128.51,321.81,225.72,456.21c162.67,224.92,327.1,448.35,480.15,684.36
			c111.14,171.39,187.37,373.21,223.27,597.43c13.4,83.71,4.19,117.73-43.52,142.74c-42.81,22.44-80.18,3.22-98.17-52.96
			c-38.86-121.35-74.75-244.42-115.65-364.55c-51.77-152.05-138.03-271.88-223.8-390.54c-116.37-160.99-236.45-317.33-353.51-477.47
			c-169.52-231.91-264.19-515.65-324.94-822.19c-57.41-289.71-79.65-585.09-69.02-882.97c9.5-266.33,30.08-531.95,45.29-797.94
			c12-209.83,22.76-419.78,35.04-629.58c9.42-161,15.82-322.65,31.9-482.55c16.12-160.37,130.94-288.2,251.68-295.18
			c130.19-7.53,236.69,97.97,270.74,269.64c8.27,41.7,13.58,84.42,21.26,133.06c92.3-3.67,173.7,35.25,238.02,124.35
			c64.77,89.72,91.54,197.74,78.55,307.85c65.8,38.53,128.59,65.28,183.06,109.7c69.7,56.84,101.78,146.46,102.93,257.78
			c2.51,241.66-19.41,479.97-48.03,717.72c-2.23,18.54-3.34,37.32-4.75,56.02c-6.25,83.22-68.08,127.68-125.59,90.62
			c-28.08-18.1-39.33-48.12-36.24-87.62c8.92-113.93,19.49-227.66,27.35-341.71c9.01-130.79,18.7-261.69,22.74-392.84
			C-1088.9,1648.93-1129.03,1604.05-1232.27,1609.57z"/>
		<path class="st1" d="M-1449.43,2545.5c106.64,0.18,181.96,36.67,240.93,124.35c133.69,198.77,263.81,402.01,402.53,594.52
			c90.15,125.11,192.79,234.64,290,350.93c68.75,82.24,140.85,160.1,205.94,247.05c106.08,141.69,142.4,324.15,168.27,514.33
			c54.82,402.85,114.91,804.47,172.92,1206.58c9.8,67.92-15.59,129.6-59.44,143.45c-46.82,14.78-87.47-17.92-99.99-92.53
			c-28.92-172.36-54.85-345.63-80.12-519c-41.39-283.96-80.27-568.56-122.28-852.37c-19.65-132.76-78.81-236.56-153.67-324.82
			c-140.53-165.7-287.75-322.3-421.9-496.4c-108.64-140.98-201.77-302.56-302.66-453.99c-40.54-60.86-82.22-120.59-125.57-177.97
			c-43.05-56.99-96.16-63.33-151.08-36.53c-66.58,32.49-88.61,103.86-53.38,185.36c114.54,264.97,231.69,527.99,347.26,792.19
			c39.23,89.69,77.68,180.03,114.76,271.29c29.94,73.69,22.64,114.83-22.43,148.84c-42.88,32.36-87.49,14.96-116.33-47.92
			c-90.9-198.24-181.72-396.56-271.51-595.66c-66.43-147.29-136.17-292.54-195.29-444.84c-55.23-142.28-54.4-288.33,29.52-416.39
			C-1595.09,2577.61-1516.27,2548-1449.43,2545.5z"/>
		<path class="st0" d="M2265.89,2877.8c-2.15,114.18-37.21,213.02-79.4,307.37c-138.35,309.41-277.87,617.9-417.56,926.27
			c-31.9,70.42-88.52,88.8-128.86,43.12c-30.41-34.43-40.56-74.93-18.41-124.98c86.97-196.47,173.69-393.14,259.44-590.53
			c66.62-153.36,132.8-307.09,197-462.22c38.24-92.4,32.11-145.53-15.11-189.42c-57.14-53.12-136.42-50.43-180.69,13.69
			c-92.18,133.51-185.33,266.36-271.23,406.75c-146.11,238.82-315.24,444.8-496.59,635.4c-43.33,45.54-82.43,98.37-121.81,150.04
			c-93.61,122.82-115.85,284.78-138.34,446.24C800.36,4827,746.9,5214.6,692.29,5601.92c-14.66,103.96-54.26,142.19-114.01,116.1
			c-40.86-17.85-56.55-49.86-48.88-106.72c52.05-386.07,104.5-772.04,157.07-1157.99c10.82-79.41,21.76-158.82,34.23-237.79
			c34.13-216.16,139.28-370.39,260.27-509.46c99.99-114.93,208.42-218.54,301.1-342.7c116.87-156.57,220.74-329.86,331.79-494.1
			c58.82-86.99,118.64-173.25,182.2-254.13c78.11-99.4,241.34-104.32,346.09-20.27C2223.8,2660.37,2264.49,2754.19,2265.89,2877.8z"
			/>
		<path class="st2" d="M435.86,1944.8c-4.98,0.33-9.97,0.66-14.96,0.97c-11.9,6.56-23.8,13.13-35.69,19.7
			c-5.94,16.24-16.64,32.27-17.02,48.74c-1.87,80.8,3.25,162.27-2.79,242.35c-3.29,43.62,7.62,48.57,33.13,48.34
			c64.33-0.57,128.66-0.47,192.99-0.62c103.95-0.25,102.65-0.23,103.91,135.08c0.41,43.82-8.33,59.14-43.04,57.89
			c-82.85-2.99-165.81-0.33-248.72-0.62c-24.02-0.08-40.56,3.64-39.74,45.52c3.2,164.6,3.74,329.28,6.09,493.92
			c0.53,37.44-12.6,49.63-39.18,48.69c-38.57-1.37-77.19-0.3-115.79-0.28c-0.42-160.95,0.19-321.92-2.38-482.81
			c-0.38-23.66-15.84-46.93-24.32-70.37c-2.93-38.69-25.06-33.86-44.71-33.83c-87.92,0.16-175.83,0.57-263.75,0.89
			c2.4-48.45,7.04-96.93,6.5-145.32c-0.42-37.75,10.11-48.36,37.52-47.83c82.9,1.6,165.84-0.64,248.75,0.49
			c28.85,0.39,41.61-12.65,40.91-52.46c-1.54-86.5,0.26-173.11-2.16-259.54c-0.37-13.38-15.85-26.06-24.33-39.06
			c-12.02-2.98-24.03-5.97-36.05-8.95c-8.19-1.55-16.38-3.1-24.57-4.62c-14.2-9.64-28.4-19.31-42.61-28.97
			c-70.85-48.89-144.25-92.37-211.97-147.87c-114.92-94.18-188.58-238.45-241.46-396.91c-47.04-140.96-63.57-292.57-56.46-448.78
			c7.93-174.36,53.93-330.55,124.31-473.89c58.88-119.91,138.13-218.53,232.43-288.59C-10.13,112.09,57.72,88,122.26,57.11
			c36.65-17.54,74.47-30.82,111.77-46.03c31.44,0.14,62.88,0.28,94.31,0.43c31.45,3.99,62.89,7.98,94.34,11.97
			c5.54,0.94,11.08,1.87,16.61,2.79c8.64,3.49,17.27,7,25.9,10.5c5.62,0.92,11.25,1.84,16.87,2.73c9.77,4.77,19.53,9.56,29.3,14.35
			c4.76,1.23,9.52,2.46,14.29,3.68c9.88,5.86,19.77,11.72,29.65,17.58c9.79,3.19,19.57,6.37,29.36,9.53
			c24.53,20.04,49.04,40.17,73.59,60.18c36.75,29.96,73.53,59.85,110.3,89.77c2.18,0.9,4.21,2.2,6.1,3.89
			c6.06,6.75,12.12,13.51,18.17,20.27c0,0-0.04-0.05-0.04-0.05c8.76,11.2,17.52,22.4,26.27,33.59c2.8,3.65,5.6,7.31,8.4,10.97
			c8.5,11.53,17.01,23.06,25.52,34.58c0,0-0.02-0.03-0.02-0.03c24.8,41.94,49.6,83.88,74.4,125.82
			c4.14,10.37,8.28,20.73,12.41,31.11c7.35,15.95,14.7,31.9,22.06,47.84c1.51,6.29,3.02,12.58,4.52,18.88
			c15.78,69.17,31.91,138.21,47.22,207.56c8.1,36.7,14.76,73.95,22.07,110.96c0.18,63.88,0.35,127.76,0.52,191.64
			c-23,113.21-45.99,226.41-68.98,339.62c-0.43,3.41-1.2,6.68-2.3,9.82c-36.02,68.77-72.04,137.54-108.07,206.31
			c-3.92,6.59-7.85,13.17-11.76,19.76c-8.09,10.85-16.18,21.7-24.28,32.55c-7.93,8.77-15.86,17.54-23.79,26.3
			c-20.31,22.32-40.62,44.65-60.93,66.98c-1.94,1.4-4.01,2.33-6.21,2.77c-9.54,9.91-19.06,19.83-28.59,29.76
			c-2.03,1.52-4.2,2.55-6.51,3.1c-14.46,6.89-29.13,13.09-43.33,20.8c-53.32,28.93-106.41,58.55-159.73,87.47
			C473.27,1926.85,454.47,1935.53,435.86,1944.8z M285.14,1808.03c370.65,18.91,642.7-398.14,642.9-805.07
			c0.23-487.85-279.07-822.33-619.58-844.61c-360.4-23.57-652.54,387.25-661.15,802.93
			C-362.38,1429.78-32.62,1842.54,285.14,1808.03z"/>
		<path class="st0" d="M11423.89,5116.73c0.2,82.6,2.41,161.58-1.02,240.12c-0.75,17.2-19.47,42.05-33.54,47.62
			c-65.29,25.89-130.97,56.82-198.14,66.3c-126.79,17.89-254.53,18.15-375.09-52.2c-127.04-74.14-210.88-201.75-245.78-376.67
			c-38.88-194.86-35.75-390.97,18.45-582.13c60.5-213.37,210.85-354.17,383.7-362.69c102.42-5.05,203.67-0.93,295.84,67.32
			c122.67,90.84,187.34,234.05,204.27,414.46c7.5,79.89,5.35,161.25,9.87,241.72c2.59,46.15-11.84,57.19-44.78,56.96
			c-185.96-1.3-371.93,0.04-557.89,0.47c-15.35,0.04-30.7,0.07-45.2,0.11c-16.12,171.56,83.68,321.42,211.99,328.4
			c114.6,6.23,224.8-17.38,330.22-77.4c9.15-5.21,18.59-9.69,28.16-13.34C11408.76,5114.32,11413.26,5116.03,11423.89,5116.73z
			 M11214.14,4638.13c9.37-128.18-31.85-225.29-109.79-268.21c-130.45-71.83-272.95,53.12-270.22,238.37
			c0.15,10.4,14.37,29.27,22.14,29.37C10974.66,4639.28,11093.06,4638.42,11214.14,4638.13z"/>
		<path class="st3" d="M234.03,11.09c-37.29,15.2-75.12,28.49-111.77,46.03C57.72,88-10.13,112.09-69.29,156.04
			c-94.3,70.06-173.55,168.68-232.43,288.59c-70.38,143.34-116.38,299.53-124.31,473.89c-7.1,156.21,9.42,307.82,56.46,448.78
			c52.88,158.46,126.54,302.73,241.46,396.91c67.72,55.5,141.13,98.98,211.97,147.85c-0.27,4.15-0.54,8.33-0.81,12.51
			c-39.05-14.6-80.66-22.15-116.71-44.95c-211.3-133.63-364.52-343.95-416.07-646.13C-536.08,727.33-379.06,298.58-15.66,80.3
			C49.05,41.43,122.83,28.18,192.87,5.47C205.47,1.39,220.25,8.92,234.03,11.09z"/>
		<path class="st4" d="M215.06,3084.49c38.6-0.03,77.22-1.09,115.79,0.28c26.58,0.94,39.72-11.25,39.18-48.69
			c-2.35-164.63-2.9-329.32-6.09-493.92c-0.81-41.88,15.72-45.6,39.74-45.52c82.91,0.29,165.87-2.37,248.72,0.62
			c34.71,1.25,43.45-14.07,43.04-57.89c-1.26-135.31,0.04-135.33-103.91-135.08c-64.33,0.16-128.66,0.06-192.99,0.62
			c-25.51,0.23-36.42-4.72-33.13-48.34c6.04-80.09,0.92-161.56,2.79-242.35c0.38-16.47,11.08-32.51,17.01-48.74
			c0.18,85.98-0.15,171.97,0.99,257.93c0.25,18.79-6.28,50.86,24.5,38.8c102.59-0.04,205.17-0.08,307.76-0.13
			c0.59,92.77,1.17,185.56,1.76,278.35c-102.76,0.65-205.53,1.3-308.29,1.95c-34.43-2.58-24.88,31.45-25.01,54.74
			c-1,179.27-1.27,358.54-1.76,537.82c-7.32,0.14-14.63,0.29-21.95,0.46c-6.89-0.15-13.77-0.32-20.66-0.49
			c-10.26,0.11-20.53,0.23-30.79,0.37c-6.89,0.02-13.77,0.02-20.66,0.02c-10.26-0.08-20.52-0.16-30.78-0.22
			c-6.9,0.19-13.79,0.36-20.68,0.52c-4.55-0.11-9.1-0.21-13.66-0.3C222.32,3118.37,218.69,3101.43,215.06,3084.49z"/>
		<path class="st5" d="M187.09,1954.63c8.49,13,23.96,25.68,24.33,39.06c2.42,86.43,0.62,173.04,2.16,259.54
			c0.71,39.81-12.06,52.85-40.91,52.46c-82.91-1.12-165.85,1.11-248.75-0.49c-27.41-0.53-37.94,10.08-37.52,47.83
			c0.54,48.39-4.09,96.88-6.5,145.32c-4.08,12.17-8.15,24.35-12.21,36.53c-7.31-14.26-20.3-28.11-20.93-42.84
			c-2.53-60.08,0.29-120.53-1.97-180.64c-1.49-39.67,9.01-52.17,38.98-51.55c95.84,1.98,191.72,0.63,287.58,0.56
			c5.44-16.52,15.31-32.9,15.58-49.58C188.34,2125.48,187.28,2040.04,187.09,1954.63z"/>
		<path class="st6" d="M215.06,3084.49c3.63,16.94,7.26,33.88,10.89,50.8c-44.54,19-51.34-14.91-51.56-61.68
			c-0.83-176.74-2.42-353.48-3.73-530.22c5.9-4.03,11.8-8.06,17.7-12.09c8.48,23.45,23.94,46.72,24.32,70.37
			C215.25,2762.56,214.64,2923.54,215.06,3084.49z"/>
		<path class="st7" d="M188.36,2531.3c-5.9,4.03-11.8,8.06-17.7,12.09c-84.21,0.18-168.41,0.84-252.61,0.11
			c-16.78-0.15-33.55-5.61-50.34-8.62c4.04-12.17,8.11-24.35,12.19-36.52c87.92-0.31,175.84-0.72,263.75-0.88
			C163.31,2497.43,185.43,2492.61,188.36,2531.3z"/>
		<path class="st6" d="M385.14,3134.92c0.49-179.27,0.76-358.55,1.76-537.82c0.13-23.3-9.42-57.32,25.01-54.74
			c-2.98,25.65-8.47,51.27-8.54,76.93c-0.46,155.56,0.89,311.13-0.15,466.68C403.12,3102.37,391.45,3118.61,385.14,3134.92z"/>
		<path class="st6" d="M967.16,1411.27c22.99-113.21,45.98-226.41,68.98-339.62c19.95,93.92-17.07,175.11-34.83,260.12
			C995.36,1360.24,978.84,1384.88,967.16,1411.27z"/>
		<path class="st6" d="M435.86,1944.8c18.61-9.27,37.41-17.95,55.8-27.92c53.32-28.92,106.42-58.54,159.73-87.47
			c14.2-7.7,28.87-13.91,43.33-20.8c-62.22,40.45-123.72,83.07-187.09,120.14C486.15,1941.3,459.92,1939.85,435.86,1944.8z"/>
		<path class="st6" d="M410.69,2262.19c-30.79,12.07-24.25-20.01-24.5-38.8c-1.14-85.96-0.8-171.95-0.99-257.93
			c11.9-6.57,23.8-13.14,35.7-19.7c-6.45,23.49-18.48,47-18.36,70.42C402.99,2098.21,407.64,2180.2,410.69,2262.19z"/>
		<path class="st6" d="M1035.61,880.01c-7.31-37-13.97-74.26-22.07-110.96c-15.3-69.35-31.44-138.38-47.22-207.56
			c11.01,22.62,27.5,43.52,32.01,68.2C1013.44,712.32,1053.34,789.04,1035.61,880.01z"/>
		<path class="st6" d="M187.09,1954.63c0.19,85.41,1.25,170.85-0.16,256.22c-0.28,16.67-10.14,33.06-15.58,49.58
			c0.24-83.85,1.88-167.77-0.25-251.53c-0.54-21.34-13.03-42.17-20.04-63.22C163.05,1948.66,175.07,1951.65,187.09,1954.63z"/>
		<path class="st6" d="M768.55,234.61c-36.77-29.92-73.55-59.81-110.3-89.77c-24.55-20.02-49.06-40.14-73.59-60.18
			C656.5,112.23,719.84,157.86,768.55,234.61z"/>
		<path class="st6" d="M720.21,2540.41c-0.58-92.79-1.17-185.57-1.76-278.35c1.4,0.36,3.5,0.05,4.1,1.15
			C742.76,2300.14,740.94,2503.83,720.21,2540.41z"/>
		<path class="st6" d="M856.79,1627.4c36.03-68.77,72.05-137.54,108.07-206.31C942.07,1501.87,912.07,1576.11,856.79,1627.4z"/>
		<path class="st6" d="M927.34,463.66c-24.8-41.94-49.6-83.88-74.4-125.82C877.75,379.78,902.55,421.72,927.34,463.66z"/>
		<path class="st3" d="M422.68,23.48c-31.45-3.99-62.89-7.98-94.34-11.97C359.79,15.5,391.23,19.49,422.68,23.48z"/>
		<path class="st6" d="M736.03,1772.98c20.31-22.33,40.62-44.65,60.93-66.98C776.65,1728.34,756.34,1750.66,736.03,1772.98z"/>
		<path class="st6" d="M83.05,1924.57c0.27-4.18,0.54-8.35,0.81-12.51c14.2,9.69,28.41,19.35,42.61,28.99
			C112,1935.55,97.53,1930.06,83.05,1924.57z"/>
		<path class="st6" d="M961.81,542.61c-7.35-15.95-14.71-31.89-22.06-47.84C947.11,510.72,954.46,526.66,961.81,542.61z"/>
		<path class="st6" d="M820.75,1679.71c8.1-10.85,16.19-21.69,24.28-32.55C836.93,1658.01,828.84,1668.86,820.75,1679.71z"/>
		<path class="st6" d="M819.05,292.31c-8.76-11.2-17.52-22.39-26.27-33.59C801.54,269.92,810.29,281.12,819.05,292.31z"/>
		<path class="st6" d="M852.97,337.87c-8.51-11.53-17.01-23.05-25.52-34.58C835.96,314.81,844.46,326.34,852.97,337.87z"/>
		<path class="st6" d="M701.23,1805.5c9.53-9.92,19.05-19.85,28.59-29.76C720.29,1785.68,710.76,1795.59,701.23,1805.5z"/>
		<path class="st3" d="M555.3,75.12c-9.88-5.86-19.77-11.72-29.65-17.58C535.53,63.41,545.42,69.27,555.3,75.12z"/>
		<path class="st3" d="M511.36,53.87c-9.77-4.79-19.53-9.59-29.3-14.35C491.83,44.32,501.6,49.09,511.36,53.87z"/>
		<path class="st3" d="M465.2,36.78c-8.63-3.51-17.27-7.01-25.9-10.5C447.93,29.79,456.56,33.28,465.2,36.78z"/>
		<path class="st6" d="M239.61,3135.58c6.89-0.17,13.79-0.33,20.68-0.52C253.4,3135.22,246.51,3135.4,239.61,3135.58z"/>
		<path class="st6" d="M291.08,3135.28c6.88,0,13.77,0,20.66-0.02C304.85,3135.25,297.96,3135.26,291.08,3135.28z"/>
		<path class="st6" d="M342.53,3134.89c6.89,0.17,13.77,0.34,20.66,0.49C356.3,3135.2,349.42,3135.04,342.53,3134.89z"/>
		<path class="st6" d="M792.82,258.77c-6.06-6.76-12.11-13.52-18.17-20.27C780.7,245.26,786.76,252.02,792.82,258.77z"/>
		<path class="st8" d="M285.14,1808.03c-317.76,34.52-647.52-378.24-637.83-846.74c8.6-415.68,300.75-826.5,661.15-802.93
			c340.51,22.27,619.81,356.75,619.58,844.61C927.85,1409.89,655.8,1826.93,285.14,1808.03z M866.03,986.33
			c0.37-416.35-254.7-751.65-572.57-752.68c-327.54-1.06-591.87,331.31-589.96,748.14c1.88,410.68,245.51,754.67,581.66,757.04
			C618.05,1741.18,871.31,1391.96,866.03,986.33z"/>
	</g>
</g>
</svg>
